<?xml version="1.0" encoding="UTF-8" standalone="no"?>
<svg width="16px" height="15px" viewBox="0 0 16 15" version="1.1" xmlns="http://www.w3.org/2000/svg" xmlns:xlink="http://www.w3.org/1999/xlink">
    <!-- Generator: sketchtool 39.1 (31720) - http://www.bohemiancoding.com/sketch -->
    <title>23F44FDA-03CE-4D55-AB54-5639E325AC60</title>
    <desc>Created with sketchtool.</desc>
    <defs>
        <polygon id="path-1" points="15.9879699 7.50003125 15.9879699 6.25000002e-05 0 6.25000002e-05 0 7.50003125 0 15 15.9879699 15"></polygon>
    </defs>
    <g id="ReadingPage" stroke="none" stroke-width="1" fill="none" fill-rule="evenodd">
        <g id="Drawer_Notes" transform="translate(-750.000000, -282.000000)">
            <g id="ic_note" transform="translate(750.066667, 282.000000)">
                <mask id="mask-2" fill="white">
                    <use xlink:href="#path-1"></use>
                </mask>
                <g id="Clip-2"></g>
                <path d="M13.656391,3.75 L4.33007519,3.75 C4.14621353,3.75 3.99699248,3.61 3.99699248,3.4375 C3.99699248,3.265 4.14621353,3.125 4.33007519,3.125 L13.656391,3.125 C13.8402526,3.125 13.9894737,3.265 13.9894737,3.4375 C13.9894737,3.61 13.8402526,3.75 13.656391,3.75 M13.656391,5.625 L2.33157895,5.625 C2.14771729,5.625 1.99849624,5.485 1.99849624,5.3125 C1.99849624,5.14 2.14771729,5 2.33157895,5 L13.656391,5 C13.8402526,5 13.9894737,5.14 13.9894737,5.3125 C13.9894737,5.485 13.8402526,5.625 13.656391,5.625 M13.656391,7.5 L2.33157895,7.5 C2.14771729,7.5 1.99849624,7.36 1.99849624,7.1875 C1.99849624,7.015 2.14771729,6.875 2.33157895,6.875 L13.656391,6.875 C13.8402526,6.875 13.9894737,7.015 13.9894737,7.1875 C13.9894737,7.36 13.8402526,7.5 13.656391,7.5 M13.656391,9.375 L2.33157895,9.375 C2.14771729,9.375 1.99849624,9.235 1.99849624,9.0625 C1.99849624,8.89 2.14771729,8.75 2.33157895,8.75 L13.656391,8.75 C13.8402526,8.75 13.9894737,8.89 13.9894737,9.0625 C13.9894737,9.235 13.8402526,9.375 13.656391,9.375 M6.99473684,11.25 L2.33157895,11.25 C2.14771729,11.25 1.99849624,11.11 1.99849624,10.9375 C1.99849624,10.765 2.14771729,10.625 2.33157895,10.625 L6.99473684,10.625 C7.1785985,10.625 7.32781955,10.765 7.32781955,10.9375 C7.32781955,11.11 7.1785985,11.25 6.99473684,11.25 M15.6548872,0 L0.333082707,0 C0.149221053,0 0,0.14 0,0.3125 L0,14.6875 C0,14.86 0.149221053,15 0.333082707,15 L15.6548872,15 C15.8387489,15 15.9879699,14.86 15.9879699,14.6875 L15.9879699,0.3125 C15.9879699,0.14 15.8387489,0 15.6548872,0" id="Fill-1" fill="#00A4E0" mask="url(#mask-2)"></path>
            </g>
        </g>
    </g>
</svg>