<?xml version="1.0" encoding="UTF-8" standalone="no"?>
<svg width="18px" height="18px" viewBox="0 0 18 18" version="1.1" xmlns="http://www.w3.org/2000/svg" xmlns:xlink="http://www.w3.org/1999/xlink">
    <!-- Generator: sketchtool 39.1 (31720) - http://www.bohemiancoding.com/sketch -->
    <title>712DB128-8180-4DFB-9D0D-166A65E91560</title>
    <desc>Created with sketchtool.</desc>
    <defs></defs>
    <g id="ReadingPage" stroke="none" stroke-width="1" fill="none" fill-rule="evenodd">
        <g id="Drawer_Bookmarks" transform="translate(-358.000000, -353.000000)" fill="#74797D">
            <g id="Drawer_Contents">
                <g id="Bookmarked_content" transform="translate(0.000000, 237.000000)">
                    <path d="M370.521739,129.875 C370.521739,130.082 370.346435,130.25 370.130435,130.25 C369.914435,130.25 369.73913,130.082 369.73913,129.875 L369.73913,121.625 C369.73913,121.418 369.914435,121.25 370.130435,121.25 C370.346435,121.25 370.521739,121.418 370.521739,121.625 L370.521739,129.875 Z M367.391304,129.875 C367.391304,130.082 367.216,130.25 367,130.25 C366.784,130.25 366.608696,130.082 366.608696,129.875 L366.608696,121.625 C366.608696,121.418 366.784,121.25 367,121.25 C367.216,121.25 367.391304,121.418 367.391304,121.625 L367.391304,129.875 Z M364.26087,118.25 L369.73913,118.25 L369.73913,116.75 L364.26087,116.75 L364.26087,118.25 Z M364.26087,129.875 C364.26087,130.082 364.085565,130.25 363.869565,130.25 C363.653565,130.25 363.478261,130.082 363.478261,129.875 L363.478261,121.625 C363.478261,121.418 363.653565,121.25 363.869565,121.25 C364.085565,121.25 364.26087,121.418 364.26087,121.625 L364.26087,129.875 Z M375.608696,118.25 L373.26087,118.25 L370.521739,118.25 L370.521739,116.375 C370.521739,116.168 370.346435,116 370.130435,116 L363.869565,116 C363.653565,116 363.478261,116.168 363.478261,116.375 L363.478261,118.25 L360.73913,118.25 L358.391304,118.25 C358.175304,118.25 358,118.418 358,118.625 C358,118.832 358.175304,119 358.391304,119 L360.347826,119 L360.347826,133.625 C360.347826,133.832 360.52313,134 360.73913,134 L373.26087,134 C373.47687,134 373.652174,133.832 373.652174,133.625 L373.652174,119 L375.608696,119 C375.824696,119 376,118.832 376,118.625 C376,118.418 375.824696,118.25 375.608696,118.25 L375.608696,118.25 Z" id="ic_trash"></path>
                </g>
            </g>
        </g>
    </g>
</svg>